<svg width="93" height="100" viewBox="0 0 93 100" fill="none" xmlns="http://www.w3.org/2000/svg">
<path d="M3.97946 56.0415L2.02713 56.4539L3.97946 56.0415C3.27715 52.7165 2.90398 49.3064 2.87048 45.9077L0.873652 45.9274L2.87048 45.9077C2.83611 42.4204 3.15916 38.8982 3.83127 35.4405C4.50123 31.9938 5.51699 28.6172 6.84917 25.4058C8.14758 22.2759 9.76344 19.2614 11.6511 16.4478L10.0154 15.3505L11.6511 16.4478C13.5045 13.6852 15.6398 11.0859 17.9969 8.7238L17.9969 8.72379C18.7468 7.97223 19.5214 7.24242 20.3183 6.53635C19.7321 8.50505 19.2407 10.5063 18.8477 12.5284C12.2564 46.4375 34.4784 79.3833 68.3873 85.9745C74.1831 87.1011 80.0196 87.4112 85.8112 86.9041C84.3412 88.0016 82.8132 89.0219 81.2355 89.9588C77.6988 92.0591 73.9184 93.7364 70.0004 94.9441C66.0131 96.1731 61.8829 96.9154 57.7254 97.1503C53.4436 97.3922 49.115 97.0962 44.8607 96.2692C41.4031 95.5971 38.0162 94.5772 34.7957 93.2389C31.657 91.9347 28.635 90.3112 25.8152 88.4145C23.0464 86.552 20.4426 84.4063 18.0776 82.0377L16.6623 83.4509L18.0776 82.0377C15.7349 79.6916 13.6049 77.1054 11.7479 74.3523C9.89092 71.5991 8.29096 68.6554 6.99326 65.6045L5.1668 66.3813L6.99326 65.6045C5.68312 62.5244 4.66902 59.3063 3.97946 56.0415ZM16.6108 7.34066L16.5961 7.32604L16.6108 7.34066Z" fill="#FFEC8D" stroke="#707070" stroke-width="4"/>
</svg>
