<svg width="123" height="105" viewBox="0 0 123 105" fill="none" xmlns="http://www.w3.org/2000/svg">
<circle cx="80.4959" cy="40.2564" r="23.9973" fill="#FFEC8D" stroke="#707070" stroke-width="4"/>
<line x1="78.4958" y1="77.6462" x2="78.4958" y2="73.7683" stroke="#707070" stroke-width="4" stroke-linecap="round"/>
<line x1="78.4958" y1="6.74438" x2="78.4958" y2="2.8664" stroke="#707070" stroke-width="4" stroke-linecap="round"/>
<line x1="113.22" y1="39.0442" x2="120.249" y2="39.0442" stroke="#707070" stroke-width="4" stroke-linecap="round"/>
<line x1="40.7426" y1="39.0442" x2="47.7717" y2="39.0442" stroke="#707070" stroke-width="4" stroke-linecap="round"/>
<line x1="108.857" y1="18.5207" x2="110.755" y2="16.6223" stroke="#707070" stroke-width="4" stroke-linecap="round"/>
<line x1="50.5596" y1="64.2132" x2="52.4579" y2="62.3148" stroke="#707070" stroke-width="4" stroke-linecap="round"/>
<line x1="108.857" y1="64.2132" x2="110.755" y2="62.3148" stroke="#707070" stroke-width="4" stroke-linecap="round"/>
<line x1="56.8619" y1="15.3694" x2="58.7603" y2="13.4711" stroke="#707070" stroke-width="4" stroke-linecap="round"/>
<path d="M87.7045 102.039C79.7595 102.039 49.5857 102.039 40.3364 102.039C35.1927 102.039 30.2034 101.032 25.5069 99.0455C20.9702 97.1266 16.8956 94.3793 13.3962 90.8799C9.89685 87.3806 7.14956 83.3059 5.23063 78.7692C3.24417 74.0728 2.23694 69.0834 2.23694 63.9397C2.23694 58.796 3.24417 53.8066 5.23063 49.1102C7.14956 44.5735 9.89685 40.4989 13.3962 36.9995C16.8956 33.5001 20.9702 30.7528 25.5069 28.8339C30.2034 26.8474 35.1927 25.8402 40.3364 25.8402C47.8148 25.8402 55.0536 28.0052 61.2702 32.1011C67.332 36.095 72.109 41.6939 75.0849 48.2925L75.5056 49.2255L76.4411 48.8104C79.9948 47.2338 83.7843 46.4344 87.7045 46.4344C95.1306 46.4344 102.112 49.3266 107.363 54.5781C112.614 59.8294 115.506 66.8114 115.506 74.2378C115.506 81.664 112.614 88.6456 107.363 93.8965C102.112 99.1474 95.1307 102.039 87.7045 102.039Z" fill="#EAEFFB" stroke="#707070" stroke-width="4"/>
</svg>
